<?xml version="1.0" encoding="UTF-8" standalone="no"?>
<!DOCTYPE svg PUBLIC "-//W3C//DTD SVG 1.1//EN"
 "http://www.w3.org/Graphics/SVG/1.1/DTD/svg11.dtd">
<!-- Generated by graphviz version 2.38.0 (20140413.2041)
 -->
<!-- Title: G Pages: 1 -->
<svg width="2140pt" height="664pt"
 viewBox="0.00 0.00 2140.00 664.00" xmlns="http://www.w3.org/2000/svg" xmlns:xlink="http://www.w3.org/1999/xlink">
<g id="graph0" class="graph" transform="scale(1 1) rotate(0) translate(4 660)">
<title>G</title>
<polygon fill="white" stroke="none" points="-4,4 -4,-660 2136,-660 2136,4 -4,4"/>
<g id="clust1" class="cluster"><title>cluster_1</title>
<path fill="none" stroke="blue" d="M527,-573C527,-573 882,-573 882,-573 888,-573 894,-579 894,-585 894,-585 894,-636 894,-636 894,-642 888,-648 882,-648 882,-648 527,-648 527,-648 521,-648 515,-642 515,-636 515,-636 515,-585 515,-585 515,-579 521,-573 527,-573"/>
<text text-anchor="middle" x="704.5" y="-632.8" font-family="Dejavu Sans" font-size="14.00">Project</text>
</g>
<g id="clust2" class="cluster"><title>cluster_2</title>
<path fill="none" stroke="violet" d="M698,-17.5C698,-17.5 1007,-17.5 1007,-17.5 1013,-17.5 1019,-23.5 1019,-29.5 1019,-29.5 1019,-518.5 1019,-518.5 1019,-524.5 1013,-530.5 1007,-530.5 1007,-530.5 698,-530.5 698,-530.5 692,-530.5 686,-524.5 686,-518.5 686,-518.5 686,-29.5 686,-29.5 686,-23.5 692,-17.5 698,-17.5"/>
<text text-anchor="middle" x="852.5" y="-515.3" font-family="Dejavu Sans" font-size="14.00">trust_c</text>
</g>
<!-- settings.py -->
<g id="node1" class="node"><title>settings.py</title>
<polygon fill="none" stroke="#000000" points="591.5,-617 522.5,-617 522.5,-581 597.5,-581 597.5,-611 591.5,-617"/>
<polyline fill="none" stroke="#000000" points="591.5,-617 591.5,-611 "/>
<polyline fill="none" stroke="#000000" points="597.5,-611 591.5,-611 "/>
<text text-anchor="middle" x="560" y="-595.3" font-family="Times,serif" font-size="14.00">settings.py</text>
</g>
<!-- nodeSettings -->
<g id="node14" class="node"><title>nodeSettings</title>
<polygon fill="none" stroke="#bebada" points="389,-516.5 389,-537.5 665,-537.5 665,-516.5 389,-516.5"/>
<text text-anchor="start" x="463" y="-524.3" font-family="Times,serif" font-weight="bold" font-size="14.00">SESSION_CONFIGS</text>
<polygon fill="none" stroke="#bebada" points="389,-493.5 389,-514.5 665,-514.5 665,-493.5 389,-493.5"/>
<text text-anchor="start" x="457" y="-500.3" font-family="Times,serif" font-size="14.00"> {&#39;name&#39;: &#39;trust_c_course&#39;,</text>
<polygon fill="none" stroke="#bebada" points="389,-470.5 389,-491.5 665,-491.5 665,-470.5 389,-470.5"/>
<text text-anchor="start" x="392" y="-477.3" font-family="Times,serif" font-size="14.00"> &#39;display_name&#39;: &#39;Project Module Trust_C Game&#39;,</text>
<polygon fill="none" stroke="#bebada" points="389,-447.5 389,-468.5 665,-468.5 665,-447.5 389,-447.5"/>
<text text-anchor="start" x="447.5" y="-454.3" font-family="Times,serif" font-size="14.00"> &#39;num_demo_participants&#39;: 2,</text>
<polygon fill="none" stroke="#bebada" points="389,-424.5 389,-445.5 665,-445.5 665,-424.5 389,-424.5"/>
<text text-anchor="start" x="426.5" y="-431.3" font-family="Times,serif" font-size="14.00"> &#39;app_sequence&#39;: [&#39;trust_c&#39;,&#39;survey&#39;],},</text>
<polygon fill="none" stroke="#bebada" points="386,-422 386,-541 668,-541 668,-422 386,-422"/>
</g>
<!-- settings.py&#45;&gt;nodeSettings -->
<g id="edge7" class="edge"><title>settings.py&#45;&gt;nodeSettings</title>
<path fill="none" stroke="black" d="M555.131,-580.958C553.047,-573.663 550.459,-564.605 547.703,-554.961"/>
<polygon fill="black" stroke="black" points="551.017,-553.818 544.904,-545.164 544.286,-555.741 551.017,-553.818"/>
</g>
<!-- App3 -->
<g id="node2" class="node"><title>App3</title>
<polygon fill="#ffffb3" stroke="#ffffb3" points="814,-617 811,-621 790,-621 787,-617 760,-617 760,-581 814,-581 814,-617"/>
<text text-anchor="middle" x="787" y="-595.3" font-family="Times,serif" font-size="14.00">App3</text>
</g>
<!-- App2 -->
<g id="node3" class="node"><title>App2</title>
<polygon fill="#ffffb3" stroke="#ffffb3" points="742,-617 739,-621 718,-621 715,-617 688,-617 688,-581 742,-581 742,-617"/>
<text text-anchor="middle" x="715" y="-595.3" font-family="Times,serif" font-size="14.00">App2</text>
</g>
<!-- App1 -->
<g id="node4" class="node"><title>App1</title>
<polygon fill="#ffffb3" stroke="#ffffb3" points="670,-617 667,-621 646,-621 643,-617 616,-617 616,-581 670,-581 670,-617"/>
<text text-anchor="middle" x="643" y="-595.3" font-family="Times,serif" font-size="14.00">App1</text>
</g>
<!-- trust_c -->
<g id="node5" class="node"><title>trust_c</title>
<polygon fill="#ffffb3" stroke="#ffffb3" points="886,-617 883,-621 862,-621 859,-617 832,-617 832,-581 886,-581 886,-617"/>
<text text-anchor="middle" x="859" y="-595.3" font-family="Times,serif" font-size="14.00">trust_c</text>
</g>
<!-- templates -->
<g id="node6" class="node"><title>templates</title>
<polygon fill="#ffffb3" stroke="#ffffb3" points="927.5,-499.5 924.5,-503.5 903.5,-503.5 900.5,-499.5 858.5,-499.5 858.5,-463.5 927.5,-463.5 927.5,-499.5"/>
<text text-anchor="middle" x="893" y="-477.8" font-family="Times,serif" font-size="14.00">templates</text>
</g>
<!-- trust_c&#45;&gt;templates -->
<g id="edge17" class="edge"><title>trust_c&#45;&gt;templates</title>
<path fill="none" stroke="black" d="M864.017,-580.958C867.235,-570.026 871.618,-555.134 876.002,-540.244"/>
<polygon fill="black" stroke="black" points="879.404,-541.081 878.87,-530.5 872.689,-539.105 879.404,-541.081"/>
</g>
<!-- a -->
<g id="node7" class="node"><title>a</title>
<polygon fill="#ffffb3" stroke="#ffffb3" points="927,-279 924,-283 903,-283 900,-279 873,-279 873,-243 927,-243 927,-279"/>
<text text-anchor="middle" x="900" y="-257.3" font-family="Times,serif" font-size="14.00">trust_c</text>
</g>
<!-- templates&#45;&gt;a -->
<g id="edge1" class="edge"><title>templates&#45;&gt;a</title>
<path fill="none" stroke="black" d="M893.549,-463.355C894.761,-425.541 897.67,-334.731 899.131,-289.115"/>
<polygon fill="black" stroke="black" points="902.631,-289.173 899.453,-279.066 895.635,-288.948 902.631,-289.173"/>
</g>
<!-- pp -->
<g id="node12" class="node"><title>pp</title>
<polygon fill="none" stroke="#80b1d3" points="977,-71 885,-71 885,-33 983,-33 983,-65 977,-71"/>
<polyline fill="none" stroke="#80b1d3" points="977,-71 977,-65 "/>
<polyline fill="none" stroke="#80b1d3" points="983,-65 977,-65 "/>
<text text-anchor="middle" x="934" y="-55.8" font-family="Times,serif" font-size="14.00">project pages</text>
<text text-anchor="middle" x="934" y="-40.8" font-family="Times,serif" font-size="14.00">html templates</text>
</g>
<!-- a&#45;&gt;pp -->
<g id="edge3" class="edge"><title>a&#45;&gt;pp</title>
<path fill="none" stroke="black" d="M902.84,-242.707C908.709,-206.98 922.218,-124.732 929.367,-81.2042"/>
<polygon fill="black" stroke="black" points="932.831,-81.7099 930.998,-71.2748 925.924,-80.5753 932.831,-81.7099"/>
</g>
<!-- b -->
<g id="node8" class="node"><title>b</title>
<polygon fill="none" stroke="#ffffb3" points="840,-279 837,-283 816,-283 813,-279 786,-279 786,-243 840,-243 840,-279"/>
<text text-anchor="middle" x="813" y="-257.3" font-family="Times,serif" font-size="14.00">trust_c</text>
</g>
<!-- css -->
<g id="node13" class="node"><title>css</title>
<polygon fill="none" stroke="#80b1d3" points="835,-78.5 785,-78.5 785,-25.5 841,-25.5 841,-72.5 835,-78.5"/>
<polyline fill="none" stroke="#80b1d3" points="835,-78.5 835,-72.5 "/>
<polyline fill="none" stroke="#80b1d3" points="841,-72.5 835,-72.5 "/>
<text text-anchor="middle" x="813" y="-63.3" font-family="Times,serif" font-size="14.00">CSS,</text>
<text text-anchor="middle" x="813" y="-48.3" font-family="Times,serif" font-size="14.00">JS,</text>
<text text-anchor="middle" x="813" y="-33.3" font-family="Times,serif" font-size="14.00">images</text>
</g>
<!-- b&#45;&gt;css -->
<g id="edge4" class="edge"><title>b&#45;&gt;css</title>
<path fill="none" stroke="black" d="M813,-242.707C813,-208.973 813,-133.765 813,-88.8372"/>
<polygon fill="black" stroke="black" points="816.5,-88.6524 813,-78.6525 809.5,-88.6525 816.5,-88.6524"/>
</g>
<!-- static -->
<g id="node9" class="node"><title>static</title>
<polygon fill="none" stroke="#ffffb3" points="840,-499.5 837,-503.5 816,-503.5 813,-499.5 786,-499.5 786,-463.5 840,-463.5 840,-499.5"/>
<text text-anchor="middle" x="813" y="-477.8" font-family="Times,serif" font-size="14.00">static</text>
</g>
<!-- static&#45;&gt;b -->
<g id="edge2" class="edge"><title>static&#45;&gt;b</title>
<path fill="none" stroke="black" d="M813,-463.355C813,-425.541 813,-334.731 813,-289.115"/>
<polygon fill="black" stroke="black" points="816.5,-289.066 813,-279.066 809.5,-289.066 816.5,-289.066"/>
</g>
<!-- models.py -->
<g id="node10" class="node"><title>models.py</title>
<polygon fill="none" stroke="#80b1d3" points="762,-499.5 694,-499.5 694,-463.5 768,-463.5 768,-493.5 762,-499.5"/>
<polyline fill="none" stroke="#80b1d3" points="762,-499.5 762,-493.5 "/>
<polyline fill="none" stroke="#80b1d3" points="768,-493.5 762,-493.5 "/>
<text text-anchor="middle" x="731" y="-477.8" font-family="Times,serif" font-size="14.00">models.py</text>
</g>
<!-- nodeModels -->
<g id="node15" class="node"><title>nodeModels</title>
<polygon fill="none" stroke="#bebada" points="356,-354 356,-375 560,-375 560,-354 356,-354"/>
<text text-anchor="start" x="364.5" y="-361.8" font-family="Times,serif" font-weight="bold" font-size="14.00" fill="#006400">class Constants(BaseConstants):</text>
<polygon fill="none" stroke="#bebada" points="356,-331 356,-352 560,-352 560,-331 356,-331"/>
<text text-anchor="start" x="385" y="-337.8" font-family="Times,serif" font-size="14.00">immutable values in game</text>
<polygon fill="none" stroke="#bebada" points="356,-308 356,-329 560,-329 560,-308 356,-308"/>
<text text-anchor="start" x="381" y="-314.8" font-family="Times,serif" font-size="14.00">e.g., multiplier, endowment</text>
<polygon fill="none" stroke="#bebada" points="356,-285 356,-306 560,-306 560,-285 356,-285"/>
<text text-anchor="start" x="360" y="-292.8" font-family="Times,serif" font-weight="bold" font-size="14.00" fill="#006400">class Subsession(BaseSubsession):</text>
<polygon fill="none" stroke="#bebada" points="356,-262 356,-283 560,-283 560,-262 356,-262"/>
<text text-anchor="start" x="359" y="-268.8" font-family="Times,serif" font-size="14.00">executed once at beginning of game</text>
<polygon fill="none" stroke="#bebada" points="356,-239 356,-260 560,-260 560,-239 356,-239"/>
<text text-anchor="start" x="376.5" y="-245.8" font-family="Times,serif" font-size="14.00">e.g., randomization, grouping</text>
<polygon fill="none" stroke="#bebada" points="356,-216 356,-237 560,-237 560,-216 356,-216"/>
<text text-anchor="start" x="383" y="-223.8" font-family="Times,serif" font-weight="bold" font-size="14.00" fill="#006400">class Group(BaseGroup):</text>
<polygon fill="none" stroke="#bebada" points="356,-193 356,-214 560,-214 560,-193 356,-193"/>
<text text-anchor="start" x="362.5" y="-199.8" font-family="Times,serif" font-size="14.00">fields and functions on group&#45;level</text>
<polygon fill="none" stroke="#bebada" points="356,-170 356,-191 560,-191 560,-170 356,-170"/>
<text text-anchor="start" x="384.5" y="-177.8" font-family="Times,serif" font-weight="bold" font-size="14.00" fill="#006400">class Player(BasePlayer):</text>
<polygon fill="none" stroke="#bebada" points="356,-147 356,-168 560,-168 560,-147 356,-147"/>
<text text-anchor="start" x="361.5" y="-153.8" font-family="Times,serif" font-size="14.00">fields and functions on player&#45;level</text>
<polygon fill="none" stroke="#bebada" points="353,-144 353,-378 563,-378 563,-144 353,-144"/>
</g>
<!-- models.py&#45;&gt;nodeModels -->
<g id="edge5" class="edge"><title>models.py&#45;&gt;nodeModels</title>
<path fill="none" stroke="black" d="M720.647,-463.377C712.107,-450.086 699.132,-431.682 685,-418 653.512,-387.515 615.474,-358.863 579.613,-334.639"/>
<polygon fill="black" stroke="black" points="581.292,-331.551 571.035,-328.9 577.4,-337.369 581.292,-331.551"/>
</g>
<!-- views.py -->
<g id="node11" class="node"><title>views.py</title>
<polygon fill="none" stroke="#80b1d3" points="1004.5,-499.5 945.5,-499.5 945.5,-463.5 1010.5,-463.5 1010.5,-493.5 1004.5,-499.5"/>
<polyline fill="none" stroke="#80b1d3" points="1004.5,-499.5 1004.5,-493.5 "/>
<polyline fill="none" stroke="#80b1d3" points="1010.5,-493.5 1004.5,-493.5 "/>
<text text-anchor="middle" x="978" y="-477.8" font-family="Times,serif" font-size="14.00">views.py</text>
</g>
<!-- nodeViews -->
<g id="node16" class="node"><title>nodeViews</title>
<polygon fill="none" stroke="#bebada" points="1192,-319 1192,-340 1470,-340 1470,-319 1192,-319"/>
<text text-anchor="start" x="1288" y="-326.8" font-family="Times,serif" font-weight="bold" font-size="14.00" fill="#4b0082">page_sequence</text>
<polygon fill="none" stroke="#bebada" points="1192,-296 1192,-317 1470,-317 1470,-296 1192,-296"/>
<text text-anchor="start" x="1206" y="-302.8" font-family="Times,serif" font-size="14.00">displayed order of pages; placed at end of file</text>
<polygon fill="none" stroke="#bebada" points="1192,-273 1192,-294 1470,-294 1470,-273 1192,-273"/>
<text text-anchor="start" x="1230.5" y="-280.8" font-family="Times,serif" font-weight="bold" font-size="14.00" fill="#006400">class ResultsWaitPage(WaitPage):</text>
<polygon fill="none" stroke="#bebada" points="1192,-250 1192,-271 1470,-271 1470,-250 1192,-250"/>
<text text-anchor="start" x="1260" y="-256.8" font-family="Times,serif" font-size="14.00">standardized waiting page</text>
<polygon fill="none" stroke="#bebada" points="1192,-227 1192,-248 1470,-248 1470,-227 1192,-227"/>
<text text-anchor="start" x="1279.5" y="-234.8" font-family="Times,serif" font-weight="bold" font-size="14.00" fill="#006400">class Intro(Page):</text>
<polygon fill="none" stroke="#bebada" points="1192,-204 1192,-225 1470,-225 1470,-204 1192,-204"/>
<text text-anchor="start" x="1260.5" y="-210.8" font-family="Times,serif" font-size="14.00">standard experiment page</text>
<polygon fill="none" stroke="#bebada" points="1192,-181 1192,-202 1470,-202 1470,-181 1192,-181"/>
<text text-anchor="start" x="1195" y="-188.8" font-family="Times,serif" font-size="14.00">class names </text>
<text text-anchor="start" x="1265" y="-188.8" font-family="Times,serif" font-weight="bold" font-size="14.00">must</text>
<text text-anchor="start" x="1295" y="-188.8" font-family="Times,serif" font-size="14.00"> correspond to HTML template</text>
<polygon fill="none" stroke="#bebada" points="1189,-178.5 1189,-343.5 1473,-343.5 1473,-178.5 1189,-178.5"/>
</g>
<!-- views.py&#45;&gt;nodeViews -->
<g id="edge6" class="edge"><title>views.py&#45;&gt;nodeViews</title>
<path fill="none" stroke="black" d="M1005.7,-463.355C1044.28,-439.476 1116.99,-394.466 1183.91,-353.047"/>
<polygon fill="black" stroke="black" points="1185.8,-355.994 1192.46,-347.754 1182.11,-350.042 1185.8,-355.994"/>
</g>
<!-- nodeFields -->
<g id="node17" class="node"><title>nodeFields</title>
<polygon fill="none" stroke="#bebada" points="11,-53 11,-74 225,-74 225,-53 11,-53"/>
<text text-anchor="start" x="44.5" y="-60.8" font-family="Times,serif" font-weight="bold" font-size="14.00" fill="#191970">create new database field</text>
<polygon fill="none" stroke="#bebada" points="11,-30 11,-51 225,-51 225,-30 11,-30"/>
<text text-anchor="start" x="14" y="-36.8" font-family="Times,serif" font-size="14.00">field_name = models.CurrencyField()</text>
<polygon fill="none" stroke="#bebada" points="8,-27 8,-77 228,-77 228,-27 8,-27"/>
</g>
<!-- nodeModels&#45;&gt;nodeFields -->
<g id="edge9" class="edge"><title>nodeModels&#45;&gt;nodeFields</title>
<path fill="none" stroke="black" d="M344.785,-191.072C286.893,-155.826 219.075,-114.537 172.784,-86.354"/>
<polygon fill="black" stroke="black" points="174.473,-83.2842 164.111,-81.0734 170.832,-89.2632 174.473,-83.2842"/>
</g>
<!-- nodeAccess -->
<g id="node18" class="node"><title>nodeAccess</title>
<polygon fill="none" stroke="#bebada" points="265,-53 265,-74 437,-74 437,-53 265,-53"/>
<text text-anchor="start" x="268" y="-60.8" font-family="Times,serif" font-weight="bold" font-size="14.00" fill="#191970">access/get stored player data</text>
<polygon fill="none" stroke="#bebada" points="265,-30 265,-51 437,-51 437,-30 265,-30"/>
<text text-anchor="start" x="269.5" y="-36.8" font-family="Times,serif" font-size="14.00">p1 = self.get_player_by_id(1)</text>
<polygon fill="none" stroke="#bebada" points="262,-27 262,-77 440,-77 440,-27 262,-27"/>
</g>
<!-- nodeModels&#45;&gt;nodeAccess -->
<g id="edge11" class="edge"><title>nodeModels&#45;&gt;nodeAccess</title>
<path fill="none" stroke="black" d="M395.913,-139.887C386.611,-121.892 377.664,-104.584 370.238,-90.2179"/>
<polygon fill="black" stroke="black" points="373.291,-88.5005 365.589,-81.2243 367.072,-91.7149 373.291,-88.5005"/>
</g>
<!-- nodeFct -->
<g id="node19" class="node"><title>nodeFct</title>
<polygon fill="none" stroke="#bebada" points="477,-53 477,-74 668,-74 668,-53 477,-53"/>
<text text-anchor="start" x="480" y="-60.8" font-family="Times,serif" font-weight="bold" font-size="14.00" fill="#191970">create functions</text>
<text text-anchor="start" x="573" y="-60.8" font-family="Times,serif" font-size="14.00"> (in Player class)</text>
<polygon fill="none" stroke="#bebada" points="477,-30 477,-51 668,-51 668,-30 477,-30"/>
<text text-anchor="start" x="504.5" y="-36.8" font-family="Times,serif" font-size="14.00">def function_name(self):</text>
<polygon fill="none" stroke="#bebada" points="473.5,-27 473.5,-77 670.5,-77 670.5,-27 473.5,-27"/>
</g>
<!-- nodeModels&#45;&gt;nodeFct -->
<g id="edge10" class="edge"><title>nodeModels&#45;&gt;nodeFct</title>
<path fill="none" stroke="black" d="M524.149,-139.887C534.06,-121.892 543.591,-104.584 551.503,-90.2179"/>
<polygon fill="black" stroke="black" points="554.698,-91.6722 556.456,-81.2243 548.566,-88.2953 554.698,-91.6722"/>
</g>
<!-- nodeViews&#45;&gt;pp -->
<g id="edge8" class="edge"><title>nodeViews&#45;&gt;pp</title>
<path fill="none" stroke="black" d="M1180.82,-188.31C1128.78,-162.634 1070.37,-132.882 1018,-104 1002.41,-95.4027 985.576,-85.3411 971.099,-76.4371"/>
<polygon fill="black" stroke="black" points="972.767,-73.3535 962.422,-71.0662 969.083,-79.3055 972.767,-73.3535"/>
</g>
<!-- nodeTemplates -->
<g id="node20" class="node"><title>nodeTemplates</title>
<polygon fill="none" stroke="#bebada" points="1268,-64 1268,-85 1395,-85 1395,-64 1268,-64"/>
<text text-anchor="start" x="1276.5" y="-71.8" font-family="Times,serif" font-weight="bold" font-size="14.00" fill="#191970">conditional display</text>
<polygon fill="none" stroke="#bebada" points="1268,-41 1268,-62 1395,-62 1395,-41 1268,-41"/>
<text text-anchor="start" x="1271" y="-47.8" font-family="Times,serif" font-size="14.00">def is_displayed(self):</text>
<polygon fill="none" stroke="#bebada" points="1268,-18 1268,-39 1395,-39 1395,-18 1268,-18"/>
<text text-anchor="start" x="1295.5" y="-24.8" font-family="Times,serif" font-size="14.00">return TRUE</text>
<polygon fill="none" stroke="#bebada" points="1264.5,-15.5 1264.5,-88.5 1397.5,-88.5 1397.5,-15.5 1264.5,-15.5"/>
</g>
<!-- nodeViews&#45;&gt;nodeTemplates -->
<g id="edge12" class="edge"><title>nodeViews&#45;&gt;nodeTemplates</title>
<path fill="none" stroke="black" d="M1331,-174.311C1331,-149.937 1331,-124.205 1331,-102.741"/>
<polygon fill="black" stroke="black" points="1334.5,-102.573 1331,-92.5727 1327.5,-102.573 1334.5,-102.573"/>
</g>
<!-- nodeVar -->
<g id="node21" class="node"><title>nodeVar</title>
<polygon fill="none" stroke="#bebada" points="1435,-64 1435,-85 1636,-85 1636,-64 1435,-64"/>
<text text-anchor="start" x="1459" y="-71.8" font-family="Times,serif" font-weight="bold" font-size="14.00" fill="#191970">variables for one template</text>
<polygon fill="none" stroke="#bebada" points="1435,-41 1435,-62 1636,-62 1636,-41 1435,-41"/>
<text text-anchor="start" x="1459" y="-47.8" font-family="Times,serif" font-size="14.00">def vars_for_template(self):</text>
<polygon fill="none" stroke="#bebada" points="1435,-18 1435,-39 1636,-39 1636,-18 1435,-18"/>
<text text-anchor="start" x="1438" y="-24.8" font-family="Times,serif" font-size="14.00">return {&#39;var_name&#39;:var_content, ...}</text>
<polygon fill="none" stroke="#bebada" points="1431.5,-15.5 1431.5,-88.5 1638.5,-88.5 1638.5,-15.5 1431.5,-15.5"/>
</g>
<!-- nodeViews&#45;&gt;nodeVar -->
<g id="edge13" class="edge"><title>nodeViews&#45;&gt;nodeVar</title>
<path fill="none" stroke="black" d="M1415.45,-174.311C1440.56,-148.829 1467.14,-121.862 1488.84,-99.8417"/>
<polygon fill="black" stroke="black" points="1491.47,-102.152 1496,-92.5727 1486.49,-97.2384 1491.47,-102.152"/>
</g>
<!-- nodeBefore -->
<g id="node22" class="node"><title>nodeBefore</title>
<polygon fill="none" stroke="#bebada" points="1676,-53 1676,-74 1849,-74 1849,-53 1676,-53"/>
<text text-anchor="start" x="1679" y="-60.8" font-family="Times,serif" font-weight="bold" font-size="14.00" fill="#191970">execute code before continue</text>
<polygon fill="none" stroke="#bebada" points="1676,-30 1676,-51 1849,-51 1849,-30 1676,-30"/>
<text text-anchor="start" x="1687" y="-36.8" font-family="Times,serif" font-size="14.00">def before_next_page(self):</text>
<polygon fill="none" stroke="#bebada" points="1672.5,-27 1672.5,-77 1851.5,-77 1851.5,-27 1672.5,-27"/>
</g>
<!-- nodeViews&#45;&gt;nodeBefore -->
<g id="edge14" class="edge"><title>nodeViews&#45;&gt;nodeBefore</title>
<path fill="none" stroke="black" d="M1481.09,-187.994C1536.11,-161.587 1598.88,-131.448 1656,-104 1668.44,-98.0209 1681.7,-91.6436 1694.48,-85.4954"/>
<polygon fill="black" stroke="black" points="1696.19,-88.5573 1703.69,-81.068 1693.16,-82.2493 1696.19,-88.5573"/>
</g>
<!-- nodeVarAll -->
<g id="node23" class="node"><title>nodeVarAll</title>
<polygon fill="none" stroke="#bebada" points="1889,-76 1889,-97 2121,-97 2121,-76 1889,-76"/>
<text text-anchor="start" x="1929" y="-83.8" font-family="Times,serif" font-weight="bold" font-size="14.00" fill="#191970">variables for all templates</text>
<polygon fill="none" stroke="#bebada" points="1889,-53 1889,-74 2121,-74 2121,-53 1889,-53"/>
<text text-anchor="start" x="1916" y="-59.8" font-family="Times,serif" font-size="14.00">def vars_for_all_templates(self):</text>
<polygon fill="none" stroke="#bebada" points="1889,-30 1889,-51 2121,-51 2121,-30 1889,-30"/>
<text text-anchor="start" x="1907.5" y="-36.8" font-family="Times,serif" font-size="14.00">return {&#39;var_name&#39;:var_content, ...}</text>
<polygon fill="none" stroke="#bebada" points="1889,-7 1889,-28 2121,-28 2121,-7 1889,-7"/>
<text text-anchor="start" x="1892" y="-14.8" font-family="Times,serif" font-weight="bold" font-size="14.00">must</text>
<text text-anchor="start" x="1922" y="-14.8" font-family="Times,serif" font-size="14.00"> be initialized </text>
<text text-anchor="start" x="2001" y="-14.8" font-family="Times,serif" font-weight="bold" font-size="14.00">outside</text>
<text text-anchor="start" x="2043" y="-14.8" font-family="Times,serif" font-size="14.00"> of page class</text>
<polygon fill="none" stroke="#bebada" points="1886,-4 1886,-100 2124,-100 2124,-4 1886,-4"/>
</g>
<!-- nodeViews&#45;&gt;nodeVarAll -->
<g id="edge15" class="edge"><title>nodeViews&#45;&gt;nodeVarAll</title>
<path fill="none" stroke="black" d="M1481.24,-219.756C1587.13,-190.607 1732.22,-149.084 1867.94,-104.306"/>
<polygon fill="black" stroke="black" points="1869.3,-107.542 1877.7,-101.076 1867.1,-100.897 1869.3,-107.542"/>
</g>
<!-- nodeWait -->
<g id="node24" class="node"><title>nodeWait</title>
<polygon fill="none" stroke="#bebada" points="1039,-53 1039,-74 1228,-74 1228,-53 1039,-53"/>
<text text-anchor="start" x="1070" y="-60.8" font-family="Times,serif" font-weight="bold" font-size="14.00" fill="#191970">wait for other players</text>
<polygon fill="none" stroke="#bebada" points="1039,-30 1039,-51 1228,-51 1228,-30 1039,-30"/>
<text text-anchor="start" x="1042" y="-36.8" font-family="Times,serif" font-size="14.00">def after_all_players_arrive(self):</text>
<polygon fill="none" stroke="#bebada" points="1035.5,-27 1035.5,-77 1230.5,-77 1230.5,-27 1035.5,-27"/>
</g>
<!-- nodeViews&#45;&gt;nodeWait -->
<g id="edge16" class="edge"><title>nodeViews&#45;&gt;nodeWait</title>
<path fill="none" stroke="black" d="M1249.04,-174.311C1220.24,-144.202 1189.45,-112.02 1166.84,-88.3735"/>
<polygon fill="black" stroke="black" points="1169.23,-85.8166 1159.79,-81.0094 1164.17,-90.6552 1169.23,-85.8166"/>
</g>
</g>
</svg>
